<svg width="178" height="61" viewBox="0 0 178 61" fill="none" xmlns="http://www.w3.org/2000/svg">
<path d="M6.60125 23.6C6.60125 20.1013 7.36925 17.0507 8.90525 14.448C10.4839 11.8027 12.5319 9.73333 15.0493 8.24C17.5666 6.74667 20.2973 6 23.2413 6C25.3746 6 27.3159 6.27733 29.0653 6.832C30.8573 7.38666 32.4786 8.176 33.9293 9.2C35.3799 10.1813 36.6173 11.3333 37.6413 12.656V5.488C35.7639 3.824 33.7159 2.58666 31.4973 1.776C29.2786 0.965331 26.5266 0.559998 23.2413 0.559998C20.1266 0.559998 17.2039 1.136 14.4733 2.288C11.7853 3.39733 9.41725 4.99733 7.36925 7.088C5.32125 9.136 3.72125 11.568 2.56925 14.384C1.41725 17.2 0.84125 20.272 0.84125 23.6C0.84125 26.928 1.41725 30 2.56925 32.816C3.72125 35.632 5.32125 38.0853 7.36925 40.176C9.41725 42.224 11.7853 43.824 14.4733 44.976C17.2039 46.0853 20.1266 46.64 23.2413 46.64C26.5266 46.64 29.2786 46.2347 31.4973 45.424C33.7159 44.6133 35.7639 43.376 37.6413 41.712V34.544C36.6173 35.8667 35.3799 37.04 33.9293 38.064C32.4786 39.0453 30.8573 39.8133 29.0653 40.368C27.3159 40.9227 25.3746 41.2 23.2413 41.2C20.2973 41.2 17.5666 40.4533 15.0493 38.96C12.5319 37.4667 10.4839 35.3973 8.90525 32.752C7.36925 30.1067 6.60125 27.056 6.60125 23.6ZM44.3338 31.28C44.3338 34.224 44.9951 36.8693 46.3177 39.216C47.6831 41.52 49.5178 43.3333 51.8218 44.656C54.1258 45.9787 56.7071 46.64 59.5658 46.64C62.4671 46.64 65.0484 45.9787 67.3098 44.656C69.6138 43.3333 71.4271 41.52 72.7498 39.216C74.1151 36.8693 74.7978 34.224 74.7978 31.28C74.7978 28.2933 74.1151 25.648 72.7498 23.344C71.4271 21.04 69.6138 19.2267 67.3098 17.904C65.0484 16.5813 62.4671 15.92 59.5658 15.92C56.7071 15.92 54.1258 16.5813 51.8218 17.904C49.5178 19.2267 47.6831 21.04 46.3177 23.344C44.9951 25.648 44.3338 28.2933 44.3338 31.28ZM49.5178 31.28C49.5178 29.232 49.9444 27.4187 50.7978 25.84C51.6938 24.2187 52.8884 22.96 54.3818 22.064C55.9178 21.168 57.6458 20.72 59.5658 20.72C61.4858 20.72 63.1924 21.168 64.6858 22.064C66.2218 22.96 67.4164 24.2187 68.2698 25.84C69.1658 27.4187 69.6138 29.232 69.6138 31.28C69.6138 33.328 69.1658 35.1413 68.2698 36.72C67.4164 38.2987 66.2218 39.5573 64.6858 40.496C63.1924 41.392 61.4858 41.84 59.5658 41.84C57.6458 41.84 55.9178 41.392 54.3818 40.496C52.8884 39.5573 51.6938 38.2987 50.7978 36.72C49.9444 35.1413 49.5178 33.328 49.5178 31.28ZM86.9513 16.56H81.8313V46H86.9513V16.56ZM95.8472 22.192L98.6633 17.968C97.8953 17.1573 97.0419 16.624 96.1033 16.368C95.2073 16.0693 94.2259 15.92 93.1593 15.92C91.7939 15.92 90.4499 16.4533 89.1273 17.52C87.8046 18.5867 86.7166 20.0373 85.8633 21.872C85.0526 23.664 84.6473 25.7333 84.6473 28.08H86.9513C86.9513 26.672 87.0793 25.4133 87.3353 24.304C87.6339 23.1947 88.1459 22.32 88.8713 21.68C89.5966 21.04 90.5993 20.72 91.8793 20.72C92.7326 20.72 93.4366 20.848 93.9913 21.104C94.5459 21.3173 95.1646 21.68 95.8472 22.192ZM108.569 60.08V16.56H103.449V60.08H108.569ZM133.209 31.28C133.209 28.08 132.547 25.3493 131.225 23.088C129.902 20.784 128.131 19.0133 125.913 17.776C123.737 16.5387 121.305 15.92 118.617 15.92C116.185 15.92 114.03 16.5387 112.153 17.776C110.318 19.0133 108.867 20.784 107.801 23.088C106.777 25.3493 106.265 28.08 106.265 31.28C106.265 34.4373 106.777 37.168 107.801 39.472C108.867 41.776 110.318 43.5467 112.153 44.784C114.03 46.0213 116.185 46.64 118.617 46.64C121.305 46.64 123.737 46.0213 125.913 44.784C128.131 43.5467 129.902 41.776 131.225 39.472C132.547 37.168 133.209 34.4373 133.209 31.28ZM128.025 31.28C128.025 33.5413 127.555 35.4613 126.617 37.04C125.721 38.6187 124.505 39.8133 122.969 40.624C121.475 41.4347 119.811 41.84 117.977 41.84C116.483 41.84 115.011 41.4347 113.561 40.624C112.11 39.8133 110.915 38.6187 109.977 37.04C109.038 35.4613 108.569 33.5413 108.569 31.28C108.569 29.0187 109.038 27.0987 109.977 25.52C110.915 23.9413 112.11 22.7467 113.561 21.936C115.011 21.1253 116.483 20.72 117.977 20.72C119.811 20.72 121.475 21.1253 122.969 21.936C124.505 22.7467 125.721 23.9413 126.617 25.52C127.555 27.0987 128.025 29.0187 128.025 31.28ZM139.757 1.2V31.28C139.757 34.3093 140.247 36.8907 141.229 39.024C142.21 41.1573 143.554 42.9067 145.261 44.272C147.01 45.5947 149.015 46.576 151.277 47.216C153.581 47.856 156.013 48.176 158.573 48.176C161.175 48.176 163.607 47.856 165.869 47.216C168.13 46.576 170.135 45.5947 171.885 44.272C173.634 42.9067 174.999 41.1573 175.981 39.024C176.962 36.8907 177.453 34.3093 177.453 31.28V1.2H165.037V30.256C165.037 32.304 164.503 33.968 163.437 35.248C162.37 36.4853 160.749 37.104 158.573 37.104C156.439 37.104 154.839 36.4853 153.773 35.248C152.706 33.968 152.173 32.304 152.173 30.256V1.2H139.757Z" fill="#340068"/>
</svg>
